# xmcd CD database file
#
# Track frame offsets:
#	150
#	34537
#	60082
#	83195
#	105715
#	129480
#	152045
#	192587
#	219042
#	245497
#
# Disc length: 3907 seconds
#
# Revision: 2
# Processed by: cddbd v1.5.2PL0 Copyright (c) Steve Scherf et al.
# Submitted via: CDex 1.51
#
DISCID=790f410a
DTITLE=Nature's Harmony - Starlight Blues
DYEAR=1994
DGENRE=Nature Music
TTITLE0=Down By The Tracks and Starlight Blues
TTITLE1=Sox On The Rox
TTITLE2=Downtown
TTITLE3=Arm 'N Arm
TTITLE4=Struttin'
TTITLE5=Shuffage
TTITLE6=Hangin' Out Late
TTITLE7=Dr. Hoodoo
TTITLE8=The Dog
TTITLE9=Graveyard Shift and Rutabaga Rocking Chair
EXTD=YEAR: 1994
EXTT0=Starlight Blues\n
EXTT1=
EXTT2=
EXTT3=
EXTT4=
EXTT5=
EXTT6=
EXTT7=
EXTT8=
EXTT9=Rutabaga Rocking Chair\n
PLAYORDER=
